<svg width="400" height="400" viewBox="0 0 400 400" fill="none" xmlns="http://www.w3.org/2000/svg">
<g clip-path="url(#clip0_941_2016)">
<rect width="400" height="400" fill="url(#paint0_radial_941_2016)"/>
<path d="M130.08 277.584C118.133 277.584 108.832 274.597 102.176 268.624C95.6907 262.651 92.448 253.947 92.448 242.512C92.448 233.296 94.752 226.043 99.36 220.752C104.139 215.291 111.904 211.195 122.656 208.464C133.408 205.563 148 203.6 166.432 202.576V168.528C166.432 162.043 165.664 156.923 164.128 153.168C162.763 149.243 160.544 146.427 157.472 144.72C154.4 142.843 150.219 141.904 144.928 141.904C140.832 141.904 136.053 142.757 130.592 144.464C125.301 146.171 121.291 148.389 118.56 151.12C123.68 156.752 127.435 161.36 129.824 164.944C132.213 168.357 133.749 171.088 134.432 173.136C135.115 175.184 135.456 177.061 135.456 178.768C135.456 182.693 133.749 186.192 130.336 189.264C127.093 192.165 122.315 193.616 116 193.616C108.661 193.616 103.285 191.909 99.872 188.496C96.6293 184.912 95.008 180.389 95.008 174.928C95.008 169.467 97.2267 163.835 101.664 158.032C106.272 152.059 113.099 147.109 122.144 143.184C131.189 139.088 142.368 137.04 155.68 137.04C168.139 137.04 178.891 138.661 187.936 141.904C197.152 144.976 204.235 150.352 209.184 158.032C214.304 165.712 216.864 176.464 216.864 190.288V250.704C216.864 254.8 217.547 257.872 218.912 259.92C220.448 261.797 222.581 262.736 225.312 262.736C227.189 262.736 228.896 262.565 230.432 262.224C231.968 261.883 233.589 261.285 235.296 260.432L236.576 262.48C231.627 268.453 225.995 272.464 219.68 274.512C213.365 276.56 207.477 277.584 202.016 277.584C192.117 277.584 184.608 275.451 179.488 271.184C174.368 266.747 170.784 260.859 168.736 253.52C166.688 258.811 163.957 263.333 160.544 267.088C157.301 270.672 153.205 273.317 148.256 275.024C143.307 276.731 137.248 277.584 130.08 277.584ZM153.376 260.944C156.277 260.944 158.667 260.261 160.544 258.896C162.421 257.36 163.872 255.227 164.896 252.496C165.92 249.595 166.432 246.352 166.432 242.768V206.416C160.117 206.757 155.083 207.952 151.328 210C147.744 211.877 145.269 215.035 143.904 219.472C142.539 223.739 141.856 229.627 141.856 237.136C141.856 246.011 142.795 252.24 144.672 255.824C146.549 259.237 149.451 260.944 153.376 260.944Z" fill="white"/>
<path d="M231.12 332.88L229.84 330.576C233.595 326.651 236.581 322.896 238.8 319.312C241.019 315.899 242.725 312.229 243.92 308.304C245.285 304.549 246.139 300.283 246.48 295.504C246.992 290.725 247.248 285.264 247.248 279.12V160.336C247.248 155.216 246.651 151.547 245.456 149.328C244.432 147.109 241.957 145.829 238.032 145.488L230.096 144.72L230.352 141.648L296.144 138.832L297.936 140.624V250.96C297.936 260.688 297.168 269.733 295.632 278.096C294.096 286.629 291.109 294.309 286.672 301.136C282.235 307.963 275.579 314.021 266.704 319.312C257.829 324.603 245.968 329.125 231.12 332.88ZM270.288 120.656C260.56 120.656 253.136 118.437 248.016 114C242.896 109.563 240.336 103.504 240.336 95.824C240.336 88.144 242.811 82.1707 247.76 77.904C252.88 73.4667 260.389 71.248 270.288 71.248C280.357 71.248 287.781 73.3813 292.56 77.648C297.509 81.9147 299.984 87.9733 299.984 95.824C299.984 103.504 297.339 109.563 292.048 114C286.928 118.437 279.675 120.656 270.288 120.656Z" fill="white"/>
</g>
<defs>
<radialGradient id="paint0_radial_941_2016" cx="0" cy="0" r="1" gradientUnits="userSpaceOnUse" gradientTransform="translate(200 200) rotate(90) scale(200)">
<stop stop-color="#9300D8"/>
<stop offset="0.845" stop-color="#020617"/>
</radialGradient>
<clipPath id="clip0_941_2016">
<rect width="400" height="400" fill="white"/>
</clipPath>
</defs>
</svg>
