<svg width="400" height="400" viewBox="0 0 400 400" fill="none" xmlns="http://www.w3.org/2000/svg">
<g clip-path="url(#clip0_941_2024)">
<path d="M109.5 294.55C94.3333 294.55 82.525 290.758 74.075 283.175C65.8417 275.592 61.725 264.542 61.725 250.025C61.725 238.325 64.65 229.117 70.5 222.4C76.5667 215.467 86.425 210.267 100.075 206.8C113.725 203.117 132.25 200.625 155.65 199.325V156.1C155.65 147.867 154.675 141.367 152.725 136.6C150.992 131.617 148.175 128.042 144.275 125.875C140.375 123.492 135.067 122.3 128.35 122.3C123.15 122.3 117.083 123.383 110.15 125.55C103.433 127.717 98.3417 130.533 94.875 134C101.375 141.15 106.142 147 109.175 151.55C112.208 155.883 114.158 159.35 115.025 161.95C115.892 164.55 116.325 166.933 116.325 169.1C116.325 174.083 114.158 178.525 109.825 182.425C105.708 186.108 99.6417 187.95 91.625 187.95C82.3083 187.95 75.4833 185.783 71.15 181.45C67.0333 176.9 64.975 171.158 64.975 164.225C64.975 157.292 67.7917 150.142 73.425 142.775C79.275 135.192 87.9417 128.908 99.425 123.925C110.908 118.725 125.1 116.125 142 116.125C157.817 116.125 171.467 118.183 182.95 122.3C194.65 126.2 203.642 133.025 209.925 142.775C216.425 152.525 219.675 166.175 219.675 183.725V260.425C219.675 265.625 220.542 269.525 222.275 272.125C224.225 274.508 226.933 275.7 230.4 275.7C232.783 275.7 234.95 275.483 236.9 275.05C238.85 274.617 240.908 273.858 243.075 272.775L244.7 275.375C238.417 282.958 231.267 288.05 223.25 290.65C215.233 293.25 207.758 294.55 200.825 294.55C188.258 294.55 178.725 291.842 172.225 286.425C165.725 280.792 161.175 273.317 158.575 264C155.975 270.717 152.508 276.458 148.175 281.225C144.058 285.775 138.858 289.133 132.575 291.3C126.292 293.467 118.6 294.55 109.5 294.55ZM139.075 273.425C142.758 273.425 145.792 272.558 148.175 270.825C150.558 268.875 152.4 266.167 153.7 262.7C155 259.017 155.65 254.9 155.65 250.35V204.2C147.633 204.633 141.242 206.15 136.475 208.75C131.925 211.133 128.783 215.142 127.05 220.775C125.317 226.192 124.45 233.667 124.45 243.2C124.45 254.467 125.642 262.375 128.025 266.925C130.408 271.258 134.092 273.425 139.075 273.425Z" fill="white"/>
<path d="M240.5 364.75L238.875 361.825C243.642 356.842 247.433 352.075 250.25 347.525C253.067 343.192 255.233 338.533 256.75 333.55C258.483 328.783 259.567 323.367 260 317.3C260.65 311.233 260.975 304.3 260.975 296.5V145.7C260.975 139.2 260.217 134.542 258.7 131.725C257.4 128.908 254.258 127.283 249.275 126.85L239.2 125.875L239.525 121.975L323.05 118.4L325.325 120.675V260.75C325.325 273.1 324.35 284.583 322.4 295.2C320.45 306.033 316.658 315.783 311.025 324.45C305.392 333.117 296.942 340.808 285.675 347.525C274.408 354.242 259.35 359.983 240.5 364.75ZM290.225 95.325C277.875 95.325 268.45 92.5083 261.95 86.875C255.45 81.2417 252.2 73.55 252.2 63.8C252.2 54.05 255.342 46.4667 261.625 41.05C268.125 35.4167 277.658 32.6 290.225 32.6C303.008 32.6 312.433 35.3083 318.5 40.725C324.783 46.1417 327.925 53.8333 327.925 63.8C327.925 73.55 324.567 81.2417 317.85 86.875C311.35 92.5083 302.142 95.325 290.225 95.325Z" fill="white"/>
</g>
<defs>
<clipPath id="clip0_941_2024">
<rect width="400" height="400" fill="white"/>
</clipPath>
</defs>
</svg>
